<?xml version="1.0" encoding="iso-8859-1"?>
<!-- Uploaded to: SVG Repo, www.svgrepo.com, Generator: SVG Repo Mixer Tools -->
<svg fill="#000000" height="800px" width="800px" version="1.1" id="Layer_1" xmlns="http://www.w3.org/2000/svg" xmlns:xlink="http://www.w3.org/1999/xlink" 
	 viewBox="0 0 512 512" xml:space="preserve">
<g>
	<g>
		<path d="M486.264,103.529c-16.259-12.715-37.912-16.593-60.449-10.956l-100.773,25.153C313.583,90.379,286.454,71.11,254.97,71.11
			c-31.486,0-58.581,19.268-70.039,46.616L84.278,92.573c-22.556-5.667-43.375-1.759-59.634,10.956
			C8.403,116.205,0,135.962,0,159.149v76.009c0,23.201,8.393,42.963,24.634,55.636c11.38,8.889,25.005,13.454,40.06,13.454
			c6.435,0,12.954-0.831,19.704-2.528l34.993-8.764L93.935,420.066c-0.732,3.648,0.722,7.38,3.731,9.555
			c3.009,2.176,7.012,2.37,10.243,0.537l60.079-34.333l42.285,42.287c1.796,1.806,4.22,2.778,6.701,2.778
			c0.824,0,1.648-0.102,2.463-0.324c3.268-0.88,5.824-3.435,6.694-6.713L254.9,325.969l28.769,107.884
			c0.87,3.278,3.426,5.833,6.694,6.713c0.815,0.222,1.639,0.324,2.463,0.324c2.482,0,4.907-0.972,6.704-2.778l42.287-42.287
			l60.083,34.333c3.231,1.833,7.231,1.639,10.25-0.537c3.009-2.176,4.481-5.907,3.75-9.555l-25.421-127.107l35.051,8.762
			c6.769,1.697,13.417,2.528,19.852,2.528c15.056,0,29.502-4.565,40.882-13.454C502.505,278.122,512,258.36,512,235.159v-76.009
			C512,135.962,502.505,116.205,486.264,103.529z M79.66,283.335c-16.713,4.183-31.803,1.535-43.359-7.484
			c-11.537-9.007-17.338-23.454-17.338-40.692v-76.009c0-17.225,5.801-31.667,17.338-40.678
			c11.565-9.028,26.884-11.676,43.643-7.509l100.586,25.037c-0.516,3.556-0.382,7.185-0.382,10.882v76.018
			c0,12.067,2.303,23.479,7.352,33.616l-55.238,13.738c-1.831-0.076-3.715,0.391-5.229,1.273L79.66,283.335z M212.049,413.075
			l-35.778-35.778c-3.028-3.028-7.694-3.657-11.407-1.528l-48.287,27.593l23.099-115.493l58.588-14.646
			c11.361,12.745,26.954,21.643,44.558,24.472L212.049,413.075z M199.111,222.899v-76.018c0-31.326,25.518-56.808,56.889-56.808
			s56.889,25.482,56.889,56.808v76.018c0,31.322-25.518,56.803-56.889,56.803S199.111,254.221,199.111,222.899z M393.225,403.362
			l-48.287-27.593c-3.722-2.13-8.389-1.5-11.407,1.528l-35.778,35.778l-30.773-115.38c17.604-2.829,33.194-11.727,44.558-24.472
			l58.588,14.648L393.225,403.362z M493.037,235.159c0,17.238-6.903,31.685-18.44,40.692c-11.546,9.011-27.421,11.667-44.19,7.484
			l-47.299-11.789c-1.525-0.905-3.368-1.377-5.238-1.294l-54.435-13.736c5.046-10.136,8.417-21.549,8.417-33.616v-76.018
			c0-3.697-0.829-7.326-1.343-10.882l99.898-25.037c16.768-4.167,32.764-1.519,44.329,7.509
			c11.537,9.012,18.301,23.454,18.301,40.678V235.159z"/>
	</g>
</g>
</svg>